# xmcd
#
# Track frame offsets: 
#        150
#        27523
#        51240
#        83192
#        104800
#        133376
#        163400
#        190264
#        216635
#        245841
#
# Disc length: 3680 seconds
#
# Revision: 1
# Processed by: cddbd v1.5.2PL0 Copyright (c) Steve Scherf et al.
# Submitted via: ExactAudioCopy v0.99pb5
#
DISCID=a70e5e0a
DTITLE=Various Artist - Disco Giants 3
DYEAR=2008
DGENRE=Dance Classics
TTITLE0=Jellybean - Sidwalk Talk
TTITLE1=Ritchie Family - I'll Do My Best (For You Baby)
TTITLE2=Gwen Guthrie - If Should Have Been You (Larry Levan Mix)
TTITLE3=The Manhattans - Crazy
TTITLE4=Odyssey - Inside Out
TTITLE5=Lisa Lisa and Cult Jam with Full Force - I Wonder If I Take You 
TTITLE5=Home
TTITLE6=Vesta Williams - Once Bitten Twice Shy
TTITLE7=Skipworth and Turner - Thinking About Your Love
TTITLE8=Cameo - Single Life
TTITLE9=David Joseph - You Can't Hide Your Love (From Me) (Larry Levan
TTITLE9=Mix)
EXTD=
EXTT0=
EXTT1=
EXTT2=
EXTT3=
EXTT4=
EXTT5=
EXTT6=
EXTT7=
EXTT8=
EXTT9=
PLAYORDER=
